<svg aria-hidden="true" style="position: absolute; width: 0; height: 0; overflow: hidden;" version="1.1" xmlns="http://www.w3.org/2000/svg" xmlns:xlink="http://www.w3.org/1999/xlink">
<defs>
<symbol id="icon-check" viewBox="0 0 43 32">
<path fill="#fff" style="fill: var(--color1, #fff)" d="M14.075 31.273c-1.163 0-2.278-0.462-3.099-1.284l-9.37-9.366c-1.008-1.009-1.008-2.643 0-3.652s2.643-1.008 3.652 0l8.817 8.817 23.327-23.327c1.008-1.008 2.643-1.008 3.652 0s1.008 2.643 0 3.652l-23.879 23.876c-0.821 0.823-1.937 1.285-3.099 1.284z"></path>
</symbol>
<symbol id="icon-delete" viewBox="0 0 32 32">
<path fill="#ed602b" style="fill: var(--color2, #ed602b)" d="M25.333 0h-18.667c-3.676 0-6.667 2.991-6.667 6.667v18.667c0 3.676 2.991 6.667 6.667 6.667h18.667c3.676 0 6.667-2.991 6.667-6.667v-18.667c0-3.676-2.991-6.667-6.667-6.667zM21.333 17.333h-10.667c-0.736 0-1.333-0.597-1.333-1.333s0.597-1.333 1.333-1.333h10.667c0.736 0 1.333 0.597 1.333 1.333s-0.597 1.333-1.333 1.333z"></path>
</symbol>
<symbol id="icon-telegram" viewBox="0 0 32 32">
<path fill="#fff" style="fill: var(--color1, #fff)" d="M16 0c-8.836 0-16 7.164-16 16s7.164 16 16 16c8.836 0 16-7.164 16-16s-7.164-16-16-16zM23.416 10.881c-0.24 2.529-1.283 8.669-1.812 11.503-0.224 1.2-0.667 1.601-1.093 1.64-0.929 0.085-1.635-0.615-2.535-1.204-1.408-0.923-2.204-1.497-3.571-2.399-1.58-1.041-0.556-1.613 0.344-2.548 0.236-0.245 4.329-3.969 4.409-4.307 0.009-0.043 0.020-0.2-0.075-0.283s-0.232-0.055-0.331-0.032c-0.141 0.032-2.391 1.519-6.749 4.46-0.639 0.439-1.217 0.652-1.736 0.641-0.571-0.012-1.669-0.323-2.487-0.589-1.001-0.325-1.799-0.499-1.729-1.051 0.036-0.288 0.432-0.583 1.189-0.884 4.664-2.032 7.775-3.372 9.331-4.020 4.444-1.848 5.367-2.169 5.969-2.18 0.755-0.011 0.936 0.612 0.875 1.252z"></path>
</symbol>
</defs>
</svg>
